<svg width="180" height="180" viewBox="0 0 180 180" fill="none" xmlns="http://www.w3.org/2000/svg">
  <rect width="180" height="180" rx="36" fill="#0d1b4b"/>
  <!-- Outer left bracket -->
  <rect x="28" y="44" width="14" height="14" rx="3" fill="#1d4ed8"/>
  <rect x="28" y="62" width="14" height="30" rx="3" fill="#1d4ed8"/>
  <rect x="28" y="96" width="14" height="14" rx="3" fill="#1d4ed8"/>
  <rect x="42" y="44" width="20" height="14" rx="3" fill="#1d4ed8"/>
  <rect x="42" y="96" width="20" height="14" rx="3" fill="#1d4ed8"/>
  <!-- Center square (cyan accent) -->
  <rect x="76" y="76" width="28" height="28" rx="4" fill="#06b6d4"/>
  <!-- Outer right bracket -->
  <rect x="118" y="44" width="34" height="14" rx="3" fill="#1d4ed8"/>
  <rect x="138" y="62" width="14" height="30" rx="3" fill="#1d4ed8"/>
  <rect x="118" y="96" width="34" height="14" rx="3" fill="#1d4ed8"/>
  <!-- Inner left squares -->
  <rect x="56" y="56" width="14" height="14" rx="3" fill="#3b82f6"/>
  <rect x="56" y="110" width="14" height="14" rx="3" fill="#3b82f6"/>
  <!-- Inner right squares -->
  <rect x="110" y="56" width="14" height="14" rx="3" fill="#3b82f6"/>
  <rect x="110" y="110" width="14" height="14" rx="3" fill="#3b82f6"/>
</svg>
